<svg width="30" height="30" viewBox="0 0 30 30" fill="none" xmlns="http://www.w3.org/2000/svg">
<path fill-rule="evenodd" clip-rule="evenodd" d="M22.524 17.0903H1.25299C0.560982 17.0903 0 16.5288 0 15.8361V14.1639C0 13.4713 0.560982 12.9098 1.25299 12.9098H22.5241L14.4451 4.82338C13.9558 4.33361 13.9558 3.53953 14.4451 3.04975L15.6265 1.86733C16.1158 1.37756 16.9091 1.37756 17.3985 1.86733L29.633 14.1132C30.1223 14.603 30.1223 15.397 29.633 15.8868L17.3985 28.1327C16.9091 28.6224 16.1158 28.6224 15.6265 28.1327L14.4451 26.9502C13.9558 26.4605 13.9558 25.6664 14.4451 25.1766L22.524 17.0903Z" fill="#414042"/>
</svg>
