<svg width="30" height="30" viewBox="0 0 30 30" fill="none" xmlns="http://www.w3.org/2000/svg">
<path fill-rule="evenodd" clip-rule="evenodd" d="M7.47599 17.0903H28.747C29.439 17.0903 30 16.5288 30 15.8361V14.1639C30 13.4713 29.439 12.9098 28.747 12.9098H7.4759L15.5549 4.82338C16.0442 4.33361 16.0442 3.53953 15.5549 3.04975L14.3735 1.86733C13.8842 1.37756 13.0909 1.37756 12.6015 1.86733L0.36699 14.1132C-0.122331 14.603 -0.122331 15.397 0.36699 15.8868L12.6015 28.1327C13.0909 28.6224 13.8842 28.6224 14.3735 28.1327L15.5549 26.9502C16.0442 26.4605 16.0442 25.6664 15.5549 25.1766L7.47599 17.0903Z" fill="#414042"/>
</svg>
