<svg width="30" height="30" viewBox="0 0 40 43" xmlns="http://www.w3.org/2000/svg">
<path fill-rule="evenodd" clip-rule="evenodd" d="M10.7413 16L6.51907 35H36.286L32.0638 16H10.7413ZM30.8795 11C30.6624 10.6164 30.2113 9.95635 29.3946 9.28848C28.11 8.23807 25.7184 7 21.4025 7C17.0867 7 14.6951 8.23807 13.4105 9.28848C12.5938 9.95635 12.1427 10.6164 11.9256 11H30.8795ZM21.4025 2C16.0448 2 12.506 3.56926 10.2454 5.41782C8.0224 7.23559 7.22638 9.16559 7.05801 9.63141C7.00841 9.76863 6.97752 9.88813 6.95759 9.97782L1.07023 36.4709C0.667771 38.282 2.04591 40 3.90118 40H38.9039C40.7591 40 42.1373 38.282 41.7348 36.4709L35.8475 9.97782C35.8275 9.88814 35.7967 9.76863 35.7471 9.63141C35.5787 9.16559 34.7827 7.23559 32.5597 5.41782C30.2991 3.56926 26.7602 2 21.4025 2Z" fill="#414042"/>
</svg>
