<svg width="30" height="30" viewBox="0 0 40 40" xmlns="http://www.w3.org/2000/svg">
<path d="M36.8536 8.97487C37.4394 8.38909 37.4394 7.43934 36.8536 6.85355L35.4394 5.43934C34.8536 4.85355 33.9038 4.85355 33.318 5.43934L21.1464 17.611L8.97487 5.4395C8.38908 4.85371 7.43934 4.85371 6.85355 5.4395L5.43934 6.85372C4.85355 7.4395 4.85355 8.38925 5.43934 8.97504L17.6109 21.1465L5.43936 33.318C4.85358 33.9038 4.85358 34.8536 5.43936 35.4393L6.85358 36.8536C7.43936 37.4393 8.38911 37.4393 8.9749 36.8536L21.1464 24.6821L33.318 36.8537C33.9038 37.4395 34.8536 37.4395 35.4393 36.8537L36.8536 35.4395C37.4393 34.8537 37.4393 33.9039 36.8536 33.3181L24.6819 21.1465L36.8536 8.97487Z" fill="#414042"/>
</svg>
