<svg width="30" height="30" viewBox="0 0 40 35" xmlns="http://www.w3.org/2000/svg">
<path d="M39 9.5C39 10.3284 38.3284 11 37.5 11H4.5C3.67157 11 3 10.3284 3 9.5V7.5C3 6.67157 3.67157 6 4.5 6H37.5C38.3284 6 39 6.67157 39 7.5V9.5Z" fill="#414042"/>
<path d="M39 21.5C39 22.3284 38.3284 23 37.5 23H4.5C3.67157 23 3 22.3284 3 21.5V19.5C3 18.6716 3.67157 18 4.5 18H37.5C38.3284 18 39 18.6716 39 19.5V21.5Z" fill="#414042"/>
<path d="M39 33.5C39 34.3284 38.3284 35 37.5 35H4.5C3.67157 35 3 34.3284 3 33.5V31.5C3 30.6716 3.67157 30 4.5 30H37.5C38.3284 30 39 30.6716 39 31.5V33.5Z" fill="#414042"/>
</svg>
