<svg width="175" height="89" viewBox="0 0 175 89" fill="none" xmlns="http://www.w3.org/2000/svg">
<path d="M24.4087 52.038C27.0097 52.038 29.1183 49.9309 29.1183 47.3317C29.1183 44.7325 27.0097 42.6254 24.4087 42.6254C21.8077 42.6254 19.6991 44.7325 19.6991 47.3317C19.6991 49.9309 21.8077 52.038 24.4087 52.038Z" fill="#FFE19F"/>
<path d="M46.5006 50.0213C49.1017 50.0213 51.2102 47.9142 51.2102 45.3149C51.2102 42.7157 49.1017 40.6086 46.5006 40.6086C43.8996 40.6086 41.791 42.7157 41.791 45.3149C41.791 47.9142 43.8996 50.0213 46.5006 50.0213Z" fill="#FFE19F"/>
<path d="M81.4377 55.1522C84.0388 55.1522 86.1473 53.0451 86.1473 50.4459C86.1473 47.8467 84.0388 45.7396 81.4377 45.7396C78.8367 45.7396 76.7281 47.8467 76.7281 50.4459C76.7281 53.0451 78.8367 55.1522 81.4377 55.1522Z" fill="#FFE19F"/>
<path d="M104.758 53.6308C107.359 53.6308 109.468 51.5237 109.468 48.9245C109.468 46.3252 107.359 44.2181 104.758 44.2181C102.157 44.2181 100.049 46.3252 100.049 48.9245C100.049 51.5237 102.157 53.6308 104.758 53.6308Z" fill="#FFE19F"/>
<path d="M138.144 50.9076C140.745 50.9076 142.854 48.8005 142.854 46.2013C142.854 43.6021 140.745 41.495 138.144 41.495C135.543 41.495 133.434 43.6021 133.434 46.2013C133.434 48.8005 135.543 50.9076 138.144 50.9076Z" fill="#FFE19F"/>
<path d="M157.881 47.7626C160.482 47.7626 162.591 45.6555 162.591 43.0563C162.591 40.4571 160.482 38.35 157.881 38.35C155.28 38.35 153.172 40.4571 153.172 43.0563C153.172 45.6555 155.28 47.7626 157.881 47.7626Z" fill="#FFE19F"/>
<path d="M75.3827 45.2639C78.5509 35.8499 86.5827 23.6491 101.789 27.8028C101.77 27.3802 101.668 26.9655 101.491 26.5814C99.8463 23.5532 93.2649 17.1863 83.5881 17.1863C77.517 17.1863 67.5371 32.6217 65.3755 39.8504C65.2134 40.435 65.0839 41.0282 64.9877 41.6272C69.8891 37.5588 75.3827 45.2639 75.3827 45.2639Z" fill="#414042"/>
<path d="M109.305 36.0605C109.946 38.0975 110.42 40.1837 110.72 42.298V42.298C110.982 41.1897 111.628 40.2101 112.545 39.5338C113.462 38.8576 114.589 38.5285 115.726 38.6053C114.506 31.5752 112.272 24.1387 106.101 23.0846C103.967 22.7201 102.335 27.9958 102.335 27.9958C102.335 27.9958 108.54 33.6871 109.305 36.0605Z" fill="#414042"/>
<path d="M111.279 52.785C111.188 55.9986 110.906 58.1356 110.906 58.1356C104.582 63.9492 87.8881 65.5504 80.3862 64.2017C74.656 63.1727 73.2028 58.7036 73.6249 53.4223C69.5096 55.0255 65.8662 54.0847 63.8061 51.9491L59.1364 76.3347C59.1364 76.3347 65.4601 88.3838 89.5744 88.3838C113.857 88.3838 120.013 70.3525 120.013 70.3525C120.013 70.3525 119 58.5392 118.001 52.1869C115.851 52.9703 113.534 53.1765 111.279 52.785V52.785Z" fill="#414042"/>
<path d="M48.4831 19.4275C47.0558 15.0996 43.2226 10.7675 33.7551 10.5192C32.9417 10.4982 31.3051 10.6591 31.3051 10.6591L31.4451 13.8881C32.9704 16.2265 39.5539 26.1813 44.2327 31.1415C51.4049 38.7494 50.8316 46.3943 48.9808 52.8522C47.7404 57.1822 29.2814 66.1744 20.4306 63.5002L15.9506 55.1977C15.9506 55.1977 10.4304 60.5965 4.79752 53.8196C4.79752 53.8196 12.9532 50.8187 15.028 48.8797C22.0028 42.3623 28.9888 24.5871 31.0006 14.0378C30.7206 13.6509 28.6206 10.7501 28.2475 10.7829C18.8087 11.6706 8.23941 19.5331 4.79752 31.1415C-1.55918 52.5899 -0.474882 80.4801 1.68042 84.9814C1.68042 84.9814 18.5406 90.2704 31.2624 84.9814C51.2369 76.6796 55.1744 57.129 55.1744 57.129C53.1948 50.1927 51.3895 28.2364 48.4831 19.4275Z" fill="#414042"/>
<path d="M148.05 16.3664C151.346 18.2733 157.593 28.0133 161.194 33.9472L161.219 33.9207C161.219 33.9207 161.805 27.7384 167.991 28.7408C168.331 28.7948 168.663 28.8919 168.979 29.0297C166.784 20.3446 158.969 0 151.254 0C151.254 0 145.183 2.31538 143.885 4.32577C142.322 6.74748 142.009 11.2929 141.792 16.5707C143.457 15.9356 146.173 15.2794 148.05 16.3664Z" fill="#414042"/>
<path d="M170.919 37.2174C169.843 39.8098 167.489 41.8684 163.989 41.3948C163.713 48.5347 160.394 60.2879 145.649 59.2093C130.093 58.0719 137.522 36.2283 141.063 17.1862C140.819 14.4979 140.291 11.843 139.489 9.26562L135.667 9.49087C132.505 10.6283 126.047 47.3295 127.817 62.874C129.587 78.4185 138.606 88.3838 147.843 88.3838C158.335 88.3838 174.736 62.369 174.99 56.1762C175.178 51.5783 172.717 43.776 170.919 37.2174Z" fill="#414042"/>
<path d="M87.6305 46.7659C88.4501 46.7659 89.1145 46.1019 89.1145 45.2829C89.1145 44.4639 88.4501 43.7999 87.6305 43.7999C86.8109 43.7999 86.1465 44.4639 86.1465 45.2829C86.1465 46.1019 86.8109 46.7659 87.6305 46.7659Z" fill="#414042"/>
<path d="M98.5079 45.7012C99.3275 45.7012 99.9919 45.0372 99.9919 44.2182C99.9919 43.3992 99.3275 42.7352 98.5079 42.7352C97.6883 42.7352 97.0239 43.3992 97.0239 44.2182C97.0239 45.0372 97.6883 45.7012 98.5079 45.7012Z" fill="#414042"/>
<path d="M143.663 40.8976C144.483 40.8976 145.147 40.2336 145.147 39.4146C145.147 38.5956 144.483 37.9316 143.663 37.9316C142.844 37.9316 142.179 38.5956 142.179 39.4146C142.179 40.2336 142.844 40.8976 143.663 40.8976Z" fill="#414042"/>
<path d="M152.024 39.833C152.844 39.833 153.508 39.169 153.508 38.35C153.508 37.531 152.844 36.8671 152.024 36.8671C151.205 36.8671 150.54 37.531 150.54 38.35C150.54 39.169 151.205 39.833 152.024 39.833Z" fill="#414042"/>
<path d="M31.1153 42.0735C31.9349 42.0735 32.5993 41.4095 32.5993 40.5905C32.5993 39.7715 31.9349 39.1075 31.1153 39.1075C30.2958 39.1075 29.6313 39.7715 29.6313 40.5905C29.6313 41.4095 30.2958 42.0735 31.1153 42.0735Z" fill="#414042"/>
<path d="M39.9011 41.4174C40.7207 41.4174 41.3851 40.7534 41.3851 39.9344C41.3851 39.1154 40.7207 38.4514 39.9011 38.4514C39.0815 38.4514 38.4171 39.1154 38.4171 39.9344C38.4171 40.7534 39.0815 41.4174 39.9011 41.4174Z" fill="#414042"/>
<path d="M35.5484 50.6578C33.8404 50.5795 32.2018 49.9594 30.8703 48.8874C30.8203 48.8575 30.777 48.8176 30.7433 48.7702C30.7095 48.7228 30.686 48.6688 30.6742 48.6118C30.6624 48.5548 30.6626 48.496 30.6748 48.439C30.687 48.3821 30.711 48.3283 30.7451 48.2812C30.7792 48.234 30.8227 48.1944 30.873 48.1649C30.9232 48.1355 30.9791 48.1168 31.0369 48.11C31.0948 48.1033 31.1534 48.1087 31.2091 48.1258C31.2648 48.1429 31.3163 48.1714 31.3603 48.2095C33.1432 49.505 34.8288 50.0234 36.3786 49.7429C37.6509 49.4772 38.7792 48.7494 39.5454 47.7003C39.6068 47.6068 39.7028 47.5415 39.8124 47.5187C39.9219 47.496 40.036 47.5176 40.1296 47.5789C40.2232 47.6402 40.2885 47.7362 40.3113 47.8457C40.3341 47.9551 40.3124 48.0692 40.251 48.1627C39.3643 49.4058 38.0383 50.2662 36.541 50.5697C36.2135 50.629 35.8813 50.6585 35.5484 50.6578V50.6578Z" fill="#414042"/>
<path d="M93.0346 55.574C89.914 55.574 87.4521 53.3069 87.3429 53.2041C87.3025 53.1663 87.2699 53.121 87.247 53.0706C87.2242 53.0203 87.2114 52.966 87.2096 52.9107C87.2077 52.8555 87.2168 52.8004 87.2362 52.7487C87.2557 52.6969 87.2851 52.6495 87.3229 52.6091C87.3607 52.5688 87.4061 52.5362 87.4564 52.5134C87.5068 52.4905 87.5612 52.4778 87.6165 52.4759C87.6717 52.4741 87.7268 52.4831 87.7786 52.5026C87.8304 52.522 87.8779 52.5514 87.9183 52.5892C87.9442 52.6123 90.5405 54.9934 93.5435 54.7073C95.2711 54.5464 96.8272 53.5412 98.1677 51.7204C98.2339 51.6303 98.3333 51.5703 98.4439 51.5534C98.5545 51.5365 98.6673 51.5643 98.7574 51.6305C98.8476 51.6967 98.9077 51.796 98.9245 51.9066C98.9414 52.0171 98.9137 52.1298 98.8474 52.2199C97.3557 54.2449 95.5959 55.3677 93.6156 55.5474C93.4203 55.5656 93.2257 55.574 93.0346 55.574Z" fill="#414042"/>
<path d="M147.49 50.5355C146.058 50.5067 144.658 50.1032 143.43 49.3652C143.338 49.3035 143.273 49.2075 143.251 49.0983C143.229 48.9891 143.251 48.8756 143.313 48.7828C143.375 48.6901 143.471 48.6256 143.58 48.6036C143.69 48.5817 143.803 48.604 143.896 48.6657C144.076 48.7839 148.344 51.5225 151.706 47.6458C151.742 47.604 151.786 47.5697 151.836 47.545C151.885 47.5202 151.939 47.5055 151.994 47.5016C152.05 47.4976 152.105 47.5046 152.157 47.5221C152.21 47.5396 152.259 47.5672 152.3 47.6035C152.342 47.6397 152.376 47.6838 152.401 47.7333C152.426 47.7828 152.441 47.8366 152.445 47.8918C152.449 47.947 152.442 48.0024 152.424 48.0549C152.407 48.1074 152.379 48.1559 152.343 48.1977C151.76 48.925 151.022 49.5125 150.182 49.9171C149.342 50.3217 148.423 50.533 147.49 50.5355Z" fill="#414042"/>
</svg>
