<svg width="175" height="119" viewBox="0 0 175 119" fill="none" xmlns="http://www.w3.org/2000/svg">
<g clip-path="url(#clip0)">
<path d="M24.4082 52.0811C27.0092 52.0811 29.1178 49.9749 29.1178 47.3767C29.1178 44.7786 27.0092 42.6724 24.4082 42.6724C21.8072 42.6724 19.6986 44.7786 19.6986 47.3767C19.6986 49.9749 21.8072 52.0811 24.4082 52.0811Z" fill="#FFE19F"/>
<path d="M46.5002 50.0652C49.1013 50.0652 51.2098 47.959 51.2098 45.3608C51.2098 42.7627 49.1013 40.6565 46.5002 40.6565C43.8992 40.6565 41.7906 42.7627 41.7906 45.3608C41.7906 47.959 43.8992 50.0652 46.5002 50.0652Z" fill="#FFE19F"/>
<path d="M81.437 55.1941C84.038 55.1941 86.1466 53.0879 86.1466 50.4898C86.1466 47.8916 84.038 45.7854 81.437 45.7854C78.836 45.7854 76.7274 47.8916 76.7274 50.4898C76.7274 53.0879 78.836 55.1941 81.437 55.1941Z" fill="#FFE19F"/>
<path d="M104.757 53.6734C107.358 53.6734 109.467 51.5672 109.467 48.969C109.467 46.3709 107.358 44.2646 104.757 44.2646C102.156 44.2646 100.048 46.3709 100.048 48.969C100.048 51.5672 102.156 53.6734 104.757 53.6734Z" fill="#FFE19F"/>
<path d="M138.143 50.9512C140.744 50.9512 142.853 48.845 142.853 46.2468C142.853 43.6487 140.744 41.5425 138.143 41.5425C135.542 41.5425 133.434 43.6487 133.434 46.2468C133.434 48.845 135.542 50.9512 138.143 50.9512Z" fill="#FFE19F"/>
<path d="M157.88 47.8075C160.481 47.8075 162.59 45.7013 162.59 43.1032C162.59 40.505 160.481 38.3988 157.88 38.3988C155.279 38.3988 153.171 40.505 153.171 43.1032C153.171 45.7013 155.279 47.8075 157.88 47.8075Z" fill="#FFE19F"/>
<path d="M75.382 45.3099C78.5502 35.8998 86.582 23.704 101.789 27.856C101.769 27.4336 101.668 27.0191 101.491 26.6351C99.8456 23.6082 93.2642 17.2439 83.5874 17.2439C77.5163 17.2439 67.5365 32.6729 65.3749 39.8986C65.2127 40.483 65.0833 41.0759 64.9871 41.6747C69.8884 37.608 75.382 45.3099 75.382 45.3099Z" fill="#414042"/>
<path d="M109.304 36.1103C109.946 38.1465 110.419 40.2318 110.719 42.3453V42.3453C110.981 41.2374 111.628 40.2582 112.545 39.5822C113.462 38.9062 114.589 38.5773 115.726 38.6541C114.505 31.6269 112.271 24.1935 106.1 23.1397C103.966 22.7755 102.335 28.049 102.335 28.049C102.335 28.049 108.539 33.7378 109.304 36.1103Z" fill="#414042"/>
<path d="M111.279 52.828C111.188 56.0402 110.906 58.1763 110.906 58.1763C104.582 63.9876 87.8876 65.5881 80.3857 64.24C74.6555 63.2114 73.2023 58.7441 73.6244 53.465C69.5091 55.0676 65.8656 54.1272 63.8056 51.9924L59.1359 76.368C59.1359 76.368 65.4596 88.4121 89.5739 88.4121C113.857 88.4121 120.012 70.3882 120.012 70.3882C120.012 70.3882 119 58.5798 118 52.2302C115.851 53.0132 113.533 53.2193 111.279 52.828V52.828Z" fill="#414042"/>
<path d="M48.4825 19.4842C47.0552 15.1581 43.2221 10.8279 33.7546 10.5796C32.9412 10.5587 31.3046 10.7195 31.3046 10.7195L31.4446 13.9471C32.9699 16.2846 39.5534 26.2352 44.2321 31.1934C51.4043 38.7981 50.831 46.4399 48.9802 52.8951C47.7398 57.2233 29.2809 66.2118 20.4301 63.5387L15.9501 55.2396C15.9501 55.2396 10.4299 60.6362 4.79702 53.8622C4.79702 53.8622 12.9527 50.8625 15.0275 48.9243C22.0023 42.4096 28.9883 24.6417 31.0001 14.0967C30.7201 13.7101 28.6201 10.8104 28.247 10.8433C18.8082 11.7306 8.23891 19.5898 4.79702 31.1934C-1.55967 52.6329 -0.475369 80.5116 1.67993 85.0111C1.67993 85.0111 18.5401 90.2979 31.2619 85.0111C51.2363 76.7127 55.1738 57.1702 55.1738 57.1702C53.1942 50.2367 51.3889 28.2895 48.4825 19.4842Z" fill="#414042"/>
<path d="M148.05 16.4244C151.345 18.3305 157.592 28.0664 161.193 33.9979L161.219 33.9713C161.219 33.9713 161.804 27.7916 167.99 28.7936C168.331 28.8476 168.662 28.9447 168.978 29.0824C166.784 20.4008 158.968 0.0646973 151.253 0.0646973C151.253 0.0646973 145.182 2.37912 143.885 4.38868C142.321 6.80938 142.008 11.3529 141.792 16.6285C143.456 15.9937 146.172 15.3378 148.05 16.4244Z" fill="#414042"/>
<path d="M170.918 37.2668C169.843 39.8582 167.488 41.916 163.988 41.4426C163.712 48.5796 160.393 60.3279 145.648 59.2497C130.092 58.1127 137.521 36.2782 141.062 17.2439C140.818 14.5568 140.291 11.9029 139.488 9.32666L135.666 9.55181C132.504 10.6887 126.046 47.3748 127.816 62.9129C129.586 78.451 138.605 88.4121 147.842 88.4121C158.335 88.4121 174.736 62.4081 174.989 56.2178C175.177 51.6219 172.716 43.8227 170.918 37.2668Z" fill="#414042"/>
<path d="M87.6299 46.8111C88.4495 46.8111 89.1139 46.1475 89.1139 45.3288C89.1139 44.5101 88.4495 43.8464 87.6299 43.8464C86.8103 43.8464 86.1459 44.5101 86.1459 45.3288C86.1459 46.1475 86.8103 46.8111 87.6299 46.8111Z" fill="#414042"/>
<path d="M98.5072 45.7468C99.3268 45.7468 99.9912 45.0831 99.9912 44.2645C99.9912 43.4458 99.3268 42.7821 98.5072 42.7821C97.6876 42.7821 97.0232 43.4458 97.0232 44.2645C97.0232 45.0831 97.6876 45.7468 98.5072 45.7468Z" fill="#414042"/>
<path d="M143.663 40.9454C144.482 40.9454 145.147 40.2817 145.147 39.4631C145.147 38.6444 144.482 37.9807 143.663 37.9807C142.843 37.9807 142.179 38.6444 142.179 39.4631C142.179 40.2817 142.843 40.9454 143.663 40.9454Z" fill="#414042"/>
<path d="M152.023 39.8812C152.843 39.8812 153.507 39.2175 153.507 38.3988C153.507 37.5802 152.843 36.9165 152.023 36.9165C151.204 36.9165 150.54 37.5802 150.54 38.3988C150.54 39.2175 151.204 39.8812 152.023 39.8812Z" fill="#414042"/>
<path d="M31.1148 42.1207C31.9344 42.1207 32.5988 41.457 32.5988 40.6384C32.5988 39.8197 31.9344 39.156 31.1148 39.156C30.2953 39.156 29.6309 39.8197 29.6309 40.6384C29.6309 41.457 30.2953 42.1207 31.1148 42.1207Z" fill="#414042"/>
<path d="M39.9005 41.4649C40.7201 41.4649 41.3845 40.8013 41.3845 39.9826C41.3845 39.1639 40.7201 38.5002 39.9005 38.5002C39.0809 38.5002 38.4165 39.1639 38.4165 39.9826C38.4165 40.8013 39.0809 41.4649 39.9005 41.4649Z" fill="#414042"/>
<path d="M35.5479 50.7016C33.8399 50.6233 32.2013 50.0034 30.8698 48.9318C30.8198 48.902 30.7765 48.8621 30.7428 48.8147C30.709 48.7673 30.6855 48.7134 30.6737 48.6564C30.6619 48.5994 30.6622 48.5406 30.6744 48.4837C30.6866 48.4268 30.7105 48.3731 30.7446 48.3259C30.7787 48.2787 30.8223 48.2392 30.8725 48.2097C30.9227 48.1803 30.9786 48.1616 31.0364 48.1548C31.0943 48.1481 31.1529 48.1535 31.2086 48.1706C31.2643 48.1877 31.3158 48.2162 31.3598 48.2543C33.1427 49.5493 34.8283 50.0674 36.3781 49.787C37.6504 49.5214 38.7787 48.7939 39.5449 47.7453C39.6063 47.6518 39.7023 47.5865 39.8119 47.5638C39.9214 47.541 40.0355 47.5627 40.1291 47.6239C40.2227 47.6852 40.288 47.7811 40.3108 47.8906C40.3336 48 40.3119 48.114 40.2505 48.2074C39.3638 49.4501 38.0378 50.3101 36.5405 50.6135C36.213 50.6727 35.8808 50.7022 35.5479 50.7016V50.7016Z" fill="#414042"/>
<path d="M93.0338 55.6157C89.9132 55.6157 87.4513 53.3495 87.3421 53.2467C87.3017 53.209 87.2692 53.1637 87.2463 53.1133C87.2234 53.063 87.2107 53.0087 87.2089 52.9535C87.207 52.8983 87.2161 52.8432 87.2355 52.7915C87.2549 52.7398 87.2844 52.6924 87.3222 52.652C87.36 52.6117 87.4053 52.5791 87.4557 52.5563C87.5061 52.5335 87.5604 52.5208 87.6157 52.5189C87.671 52.517 87.7261 52.5261 87.7779 52.5455C87.8297 52.5649 87.8771 52.5944 87.9175 52.6321C87.9434 52.6552 90.5397 55.0353 93.5427 54.7493C95.2703 54.5885 96.8264 53.5837 98.1669 51.7637C98.2332 51.6736 98.3326 51.6136 98.4432 51.5967C98.5538 51.5799 98.6665 51.6076 98.7567 51.6738C98.8468 51.74 98.9069 51.8393 98.9238 51.9498C98.9406 52.0602 98.9129 52.1729 98.8466 52.2629C97.3549 54.2872 95.5951 55.4094 93.6148 55.5891C93.4195 55.6073 93.2249 55.6157 93.0338 55.6157Z" fill="#414042"/>
<path d="M147.49 50.5792C146.057 50.5505 144.657 50.1472 143.43 49.4094C143.337 49.3478 143.272 49.2518 143.25 49.1426C143.228 49.0335 143.251 48.9201 143.312 48.8273C143.374 48.7346 143.47 48.6702 143.579 48.6482C143.689 48.6263 143.802 48.6486 143.895 48.7102C144.076 48.8284 148.344 51.5658 151.705 47.6908C151.741 47.649 151.785 47.6148 151.835 47.59C151.884 47.5653 151.938 47.5505 151.993 47.5466C152.049 47.5427 152.104 47.5496 152.157 47.5671C152.209 47.5846 152.258 47.6122 152.3 47.6485C152.341 47.6847 152.376 47.7288 152.4 47.7782C152.425 47.8277 152.44 47.8815 152.444 47.9367C152.448 47.9919 152.441 48.0472 152.423 48.0997C152.406 48.1522 152.378 48.2007 152.342 48.2424C151.759 48.9694 151.021 49.5567 150.181 49.9611C149.342 50.3655 148.422 50.5767 147.49 50.5792Z" fill="#414042"/>
<path d="M174.999 105.716C174.999 105.716 151.209 117.956 124.266 118.757C96.5387 119.581 65.3594 112.217 49.8993 112.314C22.8338 112.483 15.0211 117.61 8.16255 117.61C3.63846 117.61 1.58606 98.276 1.58606 98.276C1.58606 98.276 28.7033 91.5264 49.8993 92.5424C73.1056 93.6534 94.2498 100.29 124.085 100.129C150.888 99.9848 165.372 87.0325 170.808 87.0255C173.7 87.0199 174.999 105.716 174.999 105.716Z" fill="#FFE19F"/>
<path d="M27.3866 103.584L27.7758 106.402C27.7766 106.542 27.8095 106.68 27.872 106.806C27.9344 106.932 28.0248 107.042 28.1362 107.127C28.2475 107.213 28.377 107.272 28.5147 107.3C28.6524 107.328 28.7947 107.325 28.9308 107.29C29.3234 107.231 29.7068 107.121 30.0718 106.965L30.4533 108.461C29.9448 108.715 29.3977 108.884 28.8342 108.96C27.3271 109.17 26.2057 108.529 25.9838 106.917L25.5582 103.836L24.4018 103.994L24.1918 102.475L25.3559 102.315L25.0528 100.118L26.8308 99.8738L27.1339 102.071L29.1198 101.797L29.3298 103.317L27.3866 103.584Z" fill="#414042"/>
<path d="M38.3598 103.535L38.7154 107.862L36.8695 108.013L36.5531 104.16C36.5553 103.966 36.5158 103.775 36.4373 103.598C36.3588 103.421 36.2432 103.262 36.0982 103.134C35.9532 103.005 35.7823 102.91 35.5971 102.853C35.4118 102.796 35.2165 102.78 35.0243 102.805C34.8245 102.809 34.6277 102.854 34.4465 102.939C34.2653 103.023 34.1037 103.144 33.9719 103.294C33.8402 103.444 33.7412 103.62 33.6814 103.811C33.6215 104.001 33.6021 104.202 33.6243 104.4L33.9414 108.253L32.0948 108.405L31.2646 98.3025L33.1105 98.1508L33.4346 102.094C33.6709 101.785 33.972 101.531 34.3168 101.35C34.6617 101.168 35.0419 101.065 35.431 101.046C35.7908 100.995 36.1572 101.021 36.5061 101.123C36.855 101.224 37.1785 101.398 37.4552 101.633C37.7319 101.868 37.9556 102.159 38.1115 102.487C38.2675 102.815 38.3521 103.172 38.3598 103.535V103.535Z" fill="#414042"/>
<path d="M42.6368 101.731C42.7861 101.389 43.0321 101.098 43.3446 100.893C43.6572 100.688 44.0228 100.578 44.3966 100.578C44.7034 100.57 45.0094 100.612 45.3024 100.703L45.2205 102.356C44.942 102.265 44.6502 102.222 44.3574 102.229C43.5433 102.26 42.7026 102.731 42.7558 104.156L42.8881 107.696L41.0366 107.766L40.7783 100.858L42.5647 100.788L42.6368 101.731Z" fill="#414042"/>
<path d="M53.3194 107.05C52.5177 107.48 51.6199 107.7 50.7098 107.69C48.2598 107.683 46.6946 106.232 46.7002 104.081C46.6797 103.607 46.7575 103.134 46.9287 102.692C47.0998 102.249 47.3608 101.847 47.695 101.51C48.0293 101.173 48.4296 100.909 48.871 100.734C49.3124 100.559 49.7852 100.477 50.2597 100.493C52.3849 100.5 53.9949 102.101 53.5329 104.654L48.5335 104.64C48.7183 105.605 49.5835 106.068 50.7196 106.071C51.5293 106.073 52.3295 105.896 53.0625 105.553L53.3194 107.05ZM51.8816 103.414C51.8701 103.22 51.8198 103.03 51.7335 102.855C51.6473 102.681 51.527 102.526 51.3796 102.398C51.2323 102.271 51.0609 102.175 50.8757 102.115C50.6904 102.055 50.495 102.033 50.301 102.05C49.8928 102.007 49.484 102.125 49.1608 102.378C48.8376 102.63 48.6253 102.999 48.5685 103.405L51.8816 103.414Z" fill="#414042"/>
<path d="M61.7817 107.745C60.9462 108.107 60.0325 108.252 59.1259 108.165C56.6843 107.955 55.2423 106.376 55.4278 104.232C55.4469 103.758 55.564 103.292 55.7717 102.865C55.9794 102.438 56.2732 102.059 56.6348 101.75C56.9963 101.442 57.4177 101.212 57.8725 101.074C58.3274 100.936 58.8058 100.894 59.2778 100.95C61.3967 101.133 62.8681 102.865 62.1954 105.372L57.21 104.942C57.3136 105.921 58.1361 106.453 59.2708 106.551C60.0783 106.62 60.8911 106.51 61.6508 106.228L61.7817 107.745ZM60.6519 103.998C60.6566 103.803 60.6222 103.609 60.5507 103.428C60.4792 103.247 60.3721 103.082 60.2358 102.943C60.0994 102.804 59.9365 102.694 59.7567 102.619C59.5769 102.543 59.3838 102.505 59.1889 102.506C58.7853 102.429 58.3679 102.513 58.0245 102.738C57.6811 102.963 57.4385 103.312 57.3479 103.712L60.6519 103.998Z" fill="#414042"/>
<path d="M71.994 105.325C73.324 105.738 73.9281 106.434 73.7853 107.62C73.6194 108.999 72.3853 109.626 70.6241 109.415C69.713 109.331 68.8302 109.054 68.0341 108.604L68.4079 107.127C69.1071 107.513 69.8702 107.769 70.6605 107.883C71.5544 107.99 71.9555 107.85 72.0045 107.443C72.0486 107.078 71.777 106.864 70.993 106.625L70.1894 106.37C68.8937 105.983 68.3309 105.234 68.4674 104.098C68.6207 102.819 69.9143 102.083 71.7378 102.301C72.5347 102.385 73.3072 102.625 74.0107 103.009L73.674 104.484C73.0385 104.158 72.3519 103.943 71.644 103.849C70.7431 103.741 70.2811 103.903 70.2321 104.31C70.1915 104.646 70.4708 104.853 71.2758 105.102L71.994 105.325Z" fill="#414042"/>
<path d="M75.5737 109.869L76.4081 103.011L78.2463 103.234L77.4119 110.092L75.5737 109.869ZM76.5411 100.794C76.5659 100.585 76.6522 100.388 76.789 100.229C76.9259 100.069 77.1071 99.9534 77.3098 99.8967C77.5124 99.8401 77.7274 99.8448 77.9273 99.9102C78.1273 99.9757 78.3033 100.099 78.4331 100.265C78.5628 100.43 78.6404 100.63 78.656 100.84C78.6716 101.05 78.6246 101.259 78.5208 101.442C78.4171 101.625 78.2613 101.773 78.0732 101.867C77.8851 101.962 77.6733 101.998 77.4644 101.972C77.3239 101.961 77.1871 101.922 77.0629 101.855C76.9386 101.789 76.8296 101.697 76.7427 101.586C76.6558 101.475 76.593 101.348 76.5583 101.211C76.5236 101.075 76.5178 100.933 76.5411 100.794Z" fill="#414042"/>
<path d="M83.6076 106.729C84.9376 107.14 85.5431 107.835 85.4017 109.021C85.2379 110.4 84.0017 111.028 82.2433 110.819C81.3325 110.737 80.4497 110.462 79.6533 110.013L80.0243 108.536C80.7237 108.92 81.4872 109.175 82.2776 109.288C83.1715 109.394 83.5726 109.254 83.6209 108.846C83.6643 108.482 83.3927 108.268 82.608 108.031L81.8044 107.776C80.5087 107.39 79.9445 106.643 80.0796 105.506C80.2315 104.228 81.523 103.49 83.3465 103.706C84.1435 103.789 84.9162 104.028 85.6201 104.41L85.2855 105.885C84.6497 105.561 83.9631 105.348 83.2555 105.255C82.3546 105.148 81.8926 105.311 81.8436 105.718C81.8037 106.054 82.0844 106.261 82.8887 106.508L83.6076 106.729Z" fill="#414042"/>
<path d="M90.1226 106.159L89.816 108.985C89.783 109.122 89.7816 109.264 89.8118 109.401C89.8421 109.538 89.9031 109.666 89.9905 109.776C90.0778 109.886 90.189 109.975 90.3157 110.035C90.4424 110.096 90.5813 110.127 90.7218 110.126C91.1169 110.163 91.5151 110.15 91.9069 110.087L91.9132 111.63C91.3583 111.753 90.787 111.784 90.222 111.722C88.7107 111.558 87.7783 110.668 87.954 109.052L88.2893 105.96L87.1287 105.835L87.2946 104.311L88.4615 104.437L88.7009 102.234L90.4838 102.427L90.2451 104.63L92.2359 104.847L92.0707 106.37L90.1226 106.159Z" fill="#414042"/>
<path d="M99.8197 112.006C98.9829 112.363 98.0692 112.502 97.1638 112.411C94.725 112.186 93.2942 110.602 93.4923 108.46C93.5142 107.986 93.6339 107.522 93.8441 107.096C94.0542 106.67 94.3503 106.293 94.7136 105.987C95.0768 105.681 95.4995 105.454 95.9551 105.319C96.4106 105.184 96.8891 105.145 97.3605 105.204C99.476 105.399 100.935 107.138 100.248 109.64L95.2703 109.18C95.3683 110.159 96.1866 110.695 97.32 110.8C98.1263 110.874 98.9392 110.769 99.7 110.492L99.8197 112.006ZM98.7129 108.255C98.7187 108.061 98.6855 107.867 98.6152 107.686C98.5448 107.504 98.4389 107.339 98.3035 107.199C98.1681 107.059 98.0061 106.948 97.8269 106.872C97.6478 106.796 97.4552 106.756 97.2604 106.755C96.8575 106.677 96.4398 106.757 96.0953 106.98C95.7507 107.203 95.5062 107.551 95.4131 107.95L98.7129 108.255Z" fill="#414042"/>
<path d="M104.341 106.869C104.526 106.545 104.802 106.282 105.135 106.112C105.467 105.942 105.842 105.873 106.214 105.913C106.52 105.938 106.819 106.012 107.1 106.134L106.841 107.767C106.575 107.647 106.291 107.574 106.001 107.548C105.189 107.492 104.303 107.869 104.203 109.289L103.953 112.82L102.107 112.689L102.594 105.801L104.375 105.927L104.341 106.869Z" fill="#414042"/>
<path d="M111.885 109.184C113.24 109.496 113.896 110.144 113.845 111.337C113.783 112.724 112.597 113.441 110.828 113.364C109.915 113.348 109.015 113.139 108.189 112.75L108.45 111.25C109.176 111.582 109.956 111.78 110.752 111.834C111.651 111.875 112.041 111.705 112.059 111.295C112.075 110.929 111.789 110.736 110.989 110.556L110.169 110.362C108.849 110.072 108.232 109.368 108.283 108.226C108.339 106.94 109.573 106.109 111.408 106.19C112.209 106.214 112.997 106.396 113.727 106.726L113.501 108.221C112.844 107.944 112.145 107.781 111.433 107.74C110.523 107.699 110.077 107.896 110.059 108.305C110.044 108.643 110.339 108.829 111.159 109.017L111.885 109.184Z" fill="#414042"/>
<path d="M122.822 108.024L122.899 113.399L121.048 113.426L120.97 108.051L119.753 108.069L119.731 106.536L120.963 106.518L120.953 105.842C120.931 104.331 121.863 103.137 123.767 103.11C124.215 103.107 124.66 103.183 125.082 103.336L124.909 104.849C124.615 104.734 124.3 104.679 123.984 104.69C123.817 104.668 123.646 104.685 123.486 104.739C123.326 104.793 123.18 104.884 123.06 105.003C122.94 105.122 122.849 105.267 122.794 105.426C122.738 105.586 122.72 105.756 122.741 105.924L122.75 106.493L124.724 106.465L124.745 107.997L122.822 108.024Z" fill="#414042"/>
<path d="M126.163 109.896C126.095 109.442 126.12 108.979 126.237 108.536C126.354 108.092 126.562 107.678 126.846 107.317C127.13 106.957 127.485 106.658 127.889 106.44C128.293 106.223 128.737 106.09 129.195 106.05C129.618 105.991 130.049 106.032 130.453 106.17C130.857 106.307 131.224 106.537 131.523 106.841L131.491 106.006L133.294 105.858L133.861 112.746L132.057 112.894L131.953 112.064C131.708 112.414 131.384 112.702 131.007 112.903C130.63 113.105 130.211 113.215 129.783 113.225C129.324 113.256 128.863 113.194 128.428 113.041C127.994 112.889 127.595 112.649 127.256 112.338C126.918 112.026 126.646 111.649 126.458 111.229C126.27 110.809 126.17 110.356 126.163 109.896ZM129.689 107.663C129.438 107.679 129.192 107.748 128.968 107.863C128.744 107.979 128.546 108.139 128.387 108.335C128.228 108.53 128.111 108.756 128.043 108.999C127.976 109.242 127.959 109.496 127.995 109.745C127.999 109.999 128.056 110.25 128.162 110.481C128.267 110.712 128.419 110.919 128.608 111.089C128.797 111.259 129.019 111.388 129.26 111.469C129.501 111.55 129.756 111.581 130.01 111.559C130.265 111.539 130.513 111.467 130.739 111.349C130.965 111.23 131.165 111.066 131.326 110.868C131.487 110.67 131.605 110.441 131.675 110.195C131.745 109.949 131.763 109.692 131.73 109.439C131.721 109.186 131.659 108.937 131.55 108.709C131.44 108.481 131.285 108.277 131.094 108.11C130.903 107.944 130.68 107.819 130.438 107.742C130.196 107.665 129.942 107.638 129.689 107.663V107.663Z" fill="#414042"/>
<path d="M137.654 106.176C137.764 105.82 137.976 105.503 138.263 105.265C138.55 105.026 138.901 104.877 139.272 104.834C139.576 104.791 139.885 104.799 140.186 104.856L140.29 106.506C140.003 106.447 139.709 106.438 139.419 106.478C138.614 106.599 137.833 107.161 138.046 108.57L138.576 112.066L136.746 112.346L135.713 105.517L137.478 105.251L137.654 106.176Z" fill="#414042"/>
<path d="M148.237 104.274C148.412 103.838 148.691 103.453 149.051 103.151C149.411 102.85 149.84 102.641 150.299 102.545C150.647 102.442 151.014 102.414 151.373 102.462C151.733 102.511 152.079 102.636 152.386 102.829C152.694 103.021 152.958 103.277 153.159 103.579C153.36 103.881 153.495 104.222 153.554 104.58L154.527 108.807L152.723 109.222L151.857 105.457C151.834 105.266 151.77 105.083 151.67 104.919C151.57 104.755 151.435 104.615 151.276 104.508C151.116 104.401 150.935 104.33 150.746 104.299C150.556 104.268 150.362 104.279 150.177 104.33C149.983 104.36 149.797 104.43 149.631 104.535C149.466 104.641 149.324 104.779 149.215 104.943C149.106 105.106 149.032 105.29 148.998 105.483C148.964 105.677 148.971 105.875 149.018 106.065L149.894 109.871L148.091 110.286L147.223 106.522C147.2 106.332 147.137 106.15 147.037 105.987C146.937 105.824 146.804 105.684 146.645 105.577C146.487 105.47 146.308 105.398 146.119 105.366C145.931 105.335 145.737 105.344 145.553 105.393C145.356 105.426 145.169 105.5 145.003 105.609C144.837 105.718 144.696 105.861 144.588 106.028C144.481 106.196 144.409 106.383 144.378 106.58C144.347 106.776 144.358 106.977 144.409 107.169L145.276 110.933L143.473 111.347L141.923 104.618L143.635 104.224L143.849 104.993C144.03 104.635 144.291 104.323 144.612 104.081C144.934 103.84 145.306 103.676 145.701 103.601C146.144 103.465 146.617 103.456 147.065 103.575C147.514 103.694 147.92 103.936 148.237 104.274V104.274Z" fill="#414042"/>
<path d="M10.056 104.758C10.616 104.77 10.9275 104.972 11.0038 105.447C11.0927 105.998 10.6839 106.378 9.98039 106.491C9.61908 106.559 9.24733 106.55 8.88979 106.464L8.87019 105.852C9.18353 105.923 9.50721 105.938 9.82569 105.895C10.1834 105.837 10.3227 105.738 10.2968 105.576C10.273 105.43 10.1435 105.377 9.81449 105.372L9.47499 105.362C8.93179 105.356 8.63079 105.128 8.55729 104.674C8.47539 104.162 8.89329 103.734 9.62269 103.617C9.94022 103.561 10.2657 103.568 10.5803 103.639L10.6132 104.246C10.3315 104.191 10.0425 104.184 9.75849 104.225C9.39869 104.283 9.23769 104.396 9.26429 104.56C9.28599 104.694 9.41619 104.743 9.75429 104.751L10.056 104.758Z" fill="#414042"/>
<path d="M14.3939 105.521C14.1037 105.743 13.7618 105.889 13.3999 105.945C13.2023 106.001 12.995 106.014 12.7919 105.984C12.5887 105.954 12.3942 105.881 12.2214 105.77C12.0485 105.659 11.9013 105.513 11.7894 105.341C11.6774 105.169 11.6034 104.975 11.5722 104.772C11.5333 104.585 11.5335 104.393 11.5728 104.206C11.6121 104.019 11.6896 103.842 11.8005 103.687C11.9114 103.531 12.0533 103.4 12.2172 103.302C12.3811 103.204 12.5636 103.141 12.7531 103.117C12.957 103.074 13.168 103.081 13.3686 103.137C13.5693 103.192 13.7539 103.294 13.9073 103.435C14.0607 103.575 14.1783 103.75 14.2507 103.945C14.323 104.14 14.3479 104.35 14.3232 104.556L12.3373 104.875C12.4169 105.052 12.559 105.193 12.7363 105.272C12.9137 105.35 13.1139 105.361 13.2984 105.301C13.6202 105.249 13.9264 105.127 14.1951 104.943L14.3939 105.521ZM13.5861 104.17C13.5688 104.093 13.5364 104.021 13.4907 103.958C13.4451 103.894 13.3871 103.84 13.3203 103.8C13.2535 103.759 13.1791 103.732 13.1017 103.72C13.0242 103.708 12.9452 103.712 12.8693 103.732C12.7046 103.741 12.5501 103.815 12.4383 103.936C12.3265 104.057 12.2662 104.217 12.2701 104.381L13.5861 104.17Z" fill="#414042"/>
<path d="M15.0022 104.211C14.9608 104.031 14.9567 103.845 14.9902 103.663C15.0237 103.482 15.094 103.309 15.1968 103.156C15.2996 103.002 15.4328 102.872 15.5881 102.772C15.7434 102.672 15.9175 102.605 16.0998 102.575C16.2676 102.538 16.4417 102.541 16.6082 102.584C16.7747 102.626 16.9289 102.707 17.0587 102.819L17.0188 102.486L17.737 102.37L18.1794 105.114L17.4612 105.229L17.3912 104.9C17.304 105.048 17.1831 105.173 17.0382 105.266C16.8934 105.359 16.7287 105.416 16.5575 105.433C16.3743 105.46 16.1875 105.449 16.0086 105.402C15.8296 105.354 15.6622 105.271 15.5167 105.156C15.3711 105.042 15.2504 104.899 15.1619 104.736C15.0735 104.574 15.0191 104.395 15.0022 104.211ZM16.3461 103.206C16.2458 103.22 16.1496 103.255 16.0634 103.309C15.9772 103.362 15.903 103.433 15.8454 103.516C15.7878 103.599 15.748 103.693 15.7285 103.793C15.709 103.892 15.7103 103.995 15.7323 104.093C15.7419 104.195 15.7724 104.294 15.8219 104.383C15.8714 104.473 15.9388 104.551 16.0198 104.613C16.1009 104.676 16.194 104.721 16.2932 104.746C16.3925 104.771 16.4958 104.775 16.5967 104.758C16.6983 104.742 16.7955 104.706 16.8825 104.651C16.9695 104.596 17.0444 104.525 17.1027 104.44C17.161 104.355 17.2014 104.26 17.2215 104.159C17.2417 104.058 17.241 103.955 17.2197 103.854C17.2079 103.753 17.1754 103.655 17.1244 103.567C17.0734 103.479 17.0048 103.402 16.923 103.342C16.8412 103.281 16.7478 103.238 16.6486 103.214C16.5494 103.191 16.4465 103.188 16.3461 103.206V103.206Z" fill="#414042"/>
<path d="M19.9035 104.095L19.6347 105.651L19.0201 105.75L19.1601 104.212L19.9035 104.095Z" fill="#414042"/>
<path d="M14.3 110.688L14.5219 108.602L15.28 108.48L14.9132 111.355L14.0032 111.502L13.2423 109.917L13.0183 111.66L12.1083 111.807L10.8497 109.193L11.6071 109.071L12.4702 110.982L12.7446 108.933L13.397 108.828L14.3 110.688Z" fill="#414042"/>
<path d="M16.0494 109.758C16.0079 109.579 16.0037 109.392 16.0369 109.211C16.0702 109.03 16.1404 108.857 16.243 108.703C16.3456 108.55 16.4786 108.419 16.6337 108.319C16.7888 108.219 16.9628 108.152 17.1449 108.122C17.3127 108.085 17.4867 108.088 17.6531 108.131C17.8195 108.174 17.9736 108.254 18.1032 108.367L18.064 108.033L18.7822 107.917L19.2246 110.661L18.5064 110.776L18.4364 110.446C18.3493 110.595 18.2285 110.72 18.0838 110.813C17.939 110.905 17.7744 110.963 17.6034 110.98C17.4203 111.007 17.2337 110.996 17.055 110.948C16.8762 110.901 16.709 110.817 16.5636 110.703C16.4182 110.588 16.2977 110.446 16.2093 110.283C16.1208 110.121 16.0664 109.942 16.0494 109.758V109.758ZM17.3927 108.754C17.2923 108.768 17.196 108.803 17.1098 108.856C17.0236 108.909 16.9493 108.98 16.8916 109.063C16.834 109.147 16.7942 109.241 16.7748 109.34C16.7554 109.44 16.7567 109.542 16.7788 109.641C16.7888 109.743 16.8195 109.841 16.869 109.93C16.9186 110.02 16.986 110.098 17.067 110.16C17.148 110.223 17.2409 110.268 17.34 110.293C17.4392 110.318 17.5424 110.322 17.6433 110.306C17.7448 110.29 17.8421 110.253 17.9291 110.199C18.0161 110.144 18.0911 110.072 18.1494 109.988C18.2077 109.903 18.2483 109.807 18.2685 109.707C18.2887 109.606 18.2882 109.502 18.267 109.402C18.2552 109.301 18.2228 109.203 18.1718 109.115C18.1207 109.026 18.0521 108.95 17.9702 108.889C17.8883 108.828 17.7948 108.785 17.6955 108.761C17.5961 108.738 17.4931 108.736 17.3927 108.754V108.754Z" fill="#414042"/>
<path d="M161.485 100.573C161.234 100.839 160.92 101.037 160.571 101.149C160.385 101.236 160.182 101.282 159.977 101.284C159.772 101.287 159.568 101.246 159.38 101.163C159.191 101.081 159.023 100.96 158.885 100.808C158.747 100.656 158.643 100.476 158.58 100.281C158.512 100.102 158.482 99.9118 158.491 99.7211C158.5 99.5304 158.548 99.3436 158.633 99.1725C158.718 99.0014 158.837 98.8496 158.984 98.7268C159.13 98.6039 159.3 98.5126 159.483 98.4585C159.678 98.3846 159.887 98.358 160.094 98.3809C160.301 98.4037 160.5 98.4753 160.673 98.5899C160.847 98.7044 160.991 98.8585 161.093 99.0396C161.196 99.2206 161.254 99.4234 161.262 99.6311L159.352 100.26C159.459 100.422 159.622 100.539 159.809 100.588C159.996 100.638 160.196 100.616 160.368 100.528C160.678 100.427 160.961 100.258 161.197 100.033L161.485 100.573ZM160.473 99.3668C160.444 99.2942 160.401 99.2282 160.345 99.1727C160.29 99.1171 160.224 99.0732 160.152 99.0435C160.08 99.0138 160.002 98.9988 159.924 98.9996C159.845 99.0004 159.768 99.0168 159.696 99.048C159.535 99.0832 159.393 99.1797 159.302 99.3171C159.211 99.4545 159.176 99.622 159.206 99.7843L160.473 99.3668Z" fill="#414042"/>
<path d="M163.193 98.4935C163.748 98.4173 164.088 98.5676 164.239 99.0235C164.414 99.5535 164.071 99.9947 163.394 100.218C163.048 100.342 162.68 100.392 162.313 100.364L162.196 99.7619C162.517 99.7825 162.839 99.7453 163.146 99.6521C163.49 99.5389 163.612 99.4193 163.561 99.2634C163.514 99.1235 163.378 99.0914 163.052 99.1382L162.716 99.1823C162.614 99.2149 162.507 99.227 162.4 99.2177C162.294 99.2084 162.19 99.178 162.096 99.1283C162.001 99.0785 161.917 99.0104 161.849 98.928C161.782 98.8455 161.731 98.7503 161.7 98.648C161.538 98.1586 161.883 97.6691 162.584 97.4349C162.889 97.3297 163.212 97.2857 163.533 97.3055L163.662 97.8999C163.375 97.8899 163.089 97.9286 162.815 98.0145C162.465 98.1292 162.329 98.2663 162.38 98.4243C162.423 98.5523 162.56 98.5802 162.896 98.5334L163.193 98.4935Z" fill="#414042"/>
<path d="M165.504 97.1825L165.863 98.2684C165.874 98.3238 165.897 98.3762 165.931 98.4213C165.965 98.4665 166.009 98.5033 166.059 98.5291C166.109 98.5548 166.165 98.5688 166.221 98.5699C166.278 98.571 166.334 98.5592 166.385 98.5355C166.536 98.4844 166.68 98.4139 166.812 98.3257L167.072 98.89C166.889 99.0274 166.685 99.1339 166.468 99.2054C166.347 99.2638 166.213 99.2943 166.078 99.2949C165.943 99.2954 165.81 99.2658 165.687 99.2084C165.565 99.151 165.457 99.067 165.371 98.9627C165.286 98.8584 165.224 98.7364 165.192 98.6054L164.8 97.4167L164.354 97.5636L164.16 96.9783L164.609 96.8301L164.329 95.9833L165.015 95.7574L165.295 96.6042L166.06 96.3518L166.253 96.937L165.504 97.1825Z" fill="#414042"/>
<path d="M167.822 97.86C167.876 97.8401 167.933 97.8312 167.991 97.8338C168.048 97.8365 168.104 97.8507 168.156 97.8755C168.207 97.9003 168.253 97.9353 168.291 97.9783C168.329 98.0213 168.358 98.0715 168.376 98.1259C168.394 98.1803 168.4 98.2377 168.395 98.2947C168.391 98.3518 168.374 98.4073 168.348 98.4579C168.321 98.5085 168.284 98.5533 168.24 98.5894C168.195 98.6256 168.144 98.6524 168.089 98.6683C168.035 98.6882 167.978 98.6971 167.921 98.6944C167.864 98.6918 167.808 98.6776 167.756 98.6528C167.704 98.6279 167.658 98.593 167.62 98.5499C167.583 98.5069 167.554 98.4567 167.536 98.4024C167.518 98.348 167.511 98.2906 167.516 98.2335C167.521 98.1765 167.537 98.121 167.564 98.0703C167.591 98.0197 167.627 97.975 167.672 97.9388C167.716 97.9027 167.767 97.8759 167.822 97.86V97.86Z" fill="#414042"/>
<path d="M160.423 104.211L159.755 104.432L159.574 103.884L160.865 103.459L161.901 106.591L161.277 106.797L160.423 104.211Z" fill="#414042"/>
<path d="M162.663 105.628C162.917 105.66 163.175 105.634 163.417 105.551C163.541 105.522 163.656 105.467 163.756 105.389C163.855 105.311 163.937 105.213 163.995 105.1C164.052 104.988 164.085 104.864 164.09 104.738C164.095 104.611 164.073 104.485 164.025 104.368C163.968 104.501 163.881 104.62 163.771 104.714C163.661 104.809 163.531 104.878 163.391 104.915C163.255 104.979 163.107 105.013 162.956 105.015C162.806 105.016 162.657 104.985 162.52 104.923C162.382 104.861 162.26 104.77 162.161 104.657C162.062 104.543 161.989 104.41 161.947 104.266C161.894 104.11 161.874 103.945 161.89 103.782C161.905 103.618 161.956 103.46 162.038 103.318C162.12 103.175 162.232 103.052 162.366 102.957C162.5 102.862 162.653 102.796 162.814 102.764C163.712 102.468 164.284 103.021 164.552 103.831C164.902 104.895 164.642 105.737 163.642 106.068C163.371 106.168 163.082 106.207 162.794 106.184L162.663 105.628ZM162.567 104.041C162.59 104.117 162.629 104.187 162.681 104.247C162.734 104.306 162.798 104.354 162.871 104.386C162.943 104.419 163.021 104.435 163.101 104.435C163.18 104.434 163.258 104.417 163.331 104.384C163.405 104.364 163.475 104.33 163.536 104.282C163.597 104.235 163.648 104.175 163.685 104.108C163.722 104.04 163.745 103.965 163.752 103.889C163.759 103.812 163.751 103.734 163.727 103.661C163.671 103.514 163.56 103.395 163.419 103.328C163.277 103.26 163.114 103.25 162.965 103.299C162.816 103.348 162.691 103.452 162.617 103.59C162.543 103.729 162.525 103.89 162.567 104.041V104.041Z" fill="#414042"/>
<path d="M165.432 102.559L164.764 102.779L164.583 102.232L165.874 101.806L166.91 104.939L166.287 105.145L165.432 102.559Z" fill="#414042"/>
<path d="M167.173 103.127C166.888 102.264 167.015 101.379 167.966 101.065C168.931 100.746 169.558 101.419 169.833 102.253C170.118 103.115 169.979 103.98 169.032 104.293C168.085 104.605 167.458 103.989 167.173 103.127ZM168.848 103.731C169.363 103.562 169.39 102.978 169.213 102.442C169.028 101.883 168.663 101.453 168.15 101.623C167.637 101.793 167.608 102.375 167.786 102.913C167.969 103.466 168.337 103.9 168.848 103.731Z" fill="#414042"/>
</g>
<defs>
<clipPath id="clip0">
<rect width="175" height="118.868" fill="white"/>
</clipPath>
</defs>
</svg>
