<svg width="180" height="102" viewBox="0 0 180 102" xmlns="http://www.w3.org/2000/svg">
<g clip-path="url(#clip0)">
<path d="M44.3 68.3H10L0 53H34.3L44.3 68.3Z" fill="#CE9F55"/>
<path d="M101.2 68.3H10V100.1H101.2V68.3Z" fill="#FFE09E"/>
<path d="M44.3 68.3H10V100.1H44.3V68.3Z" fill="#E8C079"/>
<path d="M65.8 68.3H100.1L110.1 53H75.8L65.8 68.3Z" fill="#E8C079"/>
<path d="M79.2 14C79.2 14 83.2 10 90.2 9L89.2 0C89.2 0 99.2 7 101.2 12C103.2 17 117.2 39 131.2 46C145.2 53 165.2 68 163.2 84C161.2 100 153.2 102 133.2 102C121.2 102 115.2 101 115.2 101C115.2 95 110.2 73 104.2 68C104.2 68 105.2 96.8 105.2 100C105.2 100 102.2 102 98.2 102C95.2 102 93.3 99.8 94.2 98C95.2 96 97.2 95 97.2 93C97.2 90 97.2 75 94.2 70C91.2 65 88.2 64 86.2 56C84.7 50.2 86.2 46 84.2 43C82.2 40 76.2 40 76.2 40C76.2 40 71.2 34 72.2 21L68.2 9C72.6 10 77 11.7 79.2 14Z" fill="#404041"/>
<path d="M162.2 82C162.2 82 175.6 79 174.2 65C173.2 55 165.2 46 159.2 36C153.2 26 154.2 19 156.2 15C158.4 10.5 162.2 12 162.2 12C162.2 12 155.6 21.8 164.9 35C172.2 45.5 179.7 56.8 179.7 67.8C179.7 78.7 171.7 86.3 161.5 88.4C148 91.3 162.2 82 162.2 82Z" fill="#404041"/>
<path d="M51.0999 52.7C50.2999 47.9 47.2999 32.4 38.8999 24.3L39.2999 23.9C39.6999 23.5 40.2999 23.5 40.6999 23.9C50.3999 34.1 52.7999 53.1 52.7999 53.9C51.9999 54.1 51.1999 53.5 51.0999 52.7Z" fill="#BAE3E8"/>
<path d="M56.5 61.8C56.5 61.1 55.7 45.6 61 34.6C61.4 33.8 62.3 33.5 63 33.9C58 43 57.8 56.6 57.9 60.5C57.9 61.1 57.4 61.6 56.8 61.6L56.5 61.8Z" fill="#BAE3E8"/>
<path d="M45.7001 21.4C46.4732 21.4 47.1 20.7732 47.1 20C47.1 19.2268 46.4732 18.6 45.7001 18.6C44.9269 18.6 44.3 19.2268 44.3 20C44.3 20.7732 44.9269 21.4 45.7001 21.4Z" fill="#BAE3E8"/>
<path d="M64.9 43.7C65.6732 43.7 66.3 43.0732 66.3 42.3C66.3 41.5268 65.6732 40.9 64.9 40.9C64.1268 40.9 63.5 41.5268 63.5 42.3C63.5 43.0732 64.1268 43.7 64.9 43.7Z" fill="#BAE3E8"/>
<path d="M55.9 39.3C56.6732 39.3 57.3 38.6732 57.3 37.9C57.3 37.1268 56.6732 36.5 55.9 36.5C55.1268 36.5 54.5 37.1268 54.5 37.9C54.5 38.6732 55.1268 39.3 55.9 39.3Z" fill="#BAE3E8"/>
<path d="M34.5999 33.6C35.3731 33.6 36 32.9732 36 32.2C36 31.4268 35.3731 30.8 34.5999 30.8C33.8268 30.8 33.2 31.4268 33.2 32.2C33.2 32.9732 33.8268 33.6 34.5999 33.6Z" fill="#BAE3E8"/>
<path d="M51.8 29.3H50.7C50.6 29.3 50.5 29.2 50.5 29.1V25.6C50.5 25.5 50.6 25.4 50.7 25.4H51.8C51.9 25.4 52 25.5 52 25.6V29.1C52 29.2 51.9 29.3 51.8 29.3Z" fill="#BAE3E8"/>
<path d="M53 28H49.5C49.4 28 49.3 27.9 49.3 27.8V26.7C49.3 26.6 49.4 26.5 49.5 26.5H53C53.1 26.5 53.2001 26.6 53.2001 26.7V27.8C53.2001 28 53.1 28 53 28Z" fill="#BAE3E8"/>
<path d="M42.1 41.2H41C40.9 41.2 40.8 41.1 40.8 41V37.5C40.8 37.4 40.9 37.3 41 37.3H42.1C42.2 37.3 42.3 37.4 42.3 37.5V41C42.3 41.1 42.2 41.2 42.1 41.2Z" fill="#BAE3E8"/>
<path d="M43.3001 40H39.8001C39.7001 40 39.6001 39.9 39.6001 39.8V38.7C39.6001 38.6 39.7001 38.5 39.8001 38.5H43.3001C43.4001 38.5 43.5001 38.6 43.5001 38.7V39.8C43.5001 39.9 43.4001 40 43.3001 40Z" fill="#BAE3E8"/>
</g>
</svg>
