<svg width="450" height="350" viewBox="0 0 450 350" xmlns="http://www.w3.org/2000/svg">
<path d="M445.487 272.457C445.487 272.457 323.711 325.785 223.538 343.261C106.685 363.534 4 300.419 4 199.356C4 111.974 91.5137 7.01627 182.644 3.72074C255.087 1.12425 334.964 1.82331 392.738 72.7273C457.343 151.82 445.487 272.457 445.487 272.457Z" fill="#404041"/>
<path d="M325.62 274.954C325.62 274.954 327.429 283.642 327.228 286.338L241.221 265.966L236.399 286.238L320.898 305.213C319.391 307.909 318.587 311.105 318.989 314.8C320.898 332.875 339.586 333.574 339.586 333.574C339.586 333.574 345.314 329.779 348.629 319.493C350.438 314.001 347.323 305.512 343.605 301.518C348.73 299.62 354.055 295.426 354.959 289.734C356.064 282.643 351.041 273.755 341.797 270.659C332.654 267.564 325.62 274.954 325.62 274.954Z" fill="#F4E7D0"/>
<path d="M189.276 324.187C217.208 328.98 252.776 320.392 272.971 307.709C282.115 301.917 295.277 294.327 295.277 294.327C295.277 294.327 288.444 289.134 287.038 286.738C285.933 284.94 295.578 278.848 295.578 278.848C295.578 278.848 283.622 268.462 281.512 264.468C268.35 239.901 239.413 209.542 210.174 204.449C169.482 197.458 131.905 218.53 126.077 251.585C120.249 284.64 148.583 317.196 189.276 324.187Z" fill="#FBCCB4"/>
<path d="M137.23 142.633C129.292 127.253 120.651 106.981 83.3752 88.9054L84.179 87.2077C84.9828 85.51 87.0928 84.8109 88.8009 85.7097C133.01 109.378 143.158 142.433 144.364 145.129C141.751 146.328 138.536 145.229 137.23 142.633Z" fill="#BAE3E8"/>
<path d="M355.26 247.69C356.265 245.493 378.269 195.062 412.632 168.398C415.043 166.6 418.459 167 420.167 169.496C389.723 190.568 367.82 233.709 361.791 246.292C360.887 248.29 358.576 249.089 356.567 248.29L355.26 247.69Z" fill="#BAE3E8"/>
<path d="M347.022 72.7273C349.685 72.7273 351.844 70.5812 351.844 67.9338C351.844 65.2864 349.685 63.1403 347.022 63.1403C344.358 63.1403 342.199 65.2864 342.199 67.9338C342.199 70.5812 344.358 72.7273 347.022 72.7273Z" fill="#BAE3E8"/>
<path d="M178.224 128.552C183.44 128.552 187.668 124.349 187.668 119.164C187.668 113.98 183.44 109.777 178.224 109.777C173.007 109.777 168.779 113.98 168.779 119.164C168.779 124.349 173.007 128.552 178.224 128.552Z" fill="#BAE3E8"/>
<path d="M305.023 253.383C310.239 253.383 314.467 249.18 314.467 243.995C314.467 238.811 310.239 234.608 305.023 234.608C299.807 234.608 295.578 238.811 295.578 243.995C295.578 249.18 299.807 253.383 305.023 253.383Z" fill="#BAE3E8"/>
<path d="M138.435 85.3102C141.099 85.3102 143.258 83.1641 143.258 80.5167C143.258 77.8693 141.099 75.7232 138.435 75.7232C135.772 75.7232 133.613 77.8693 133.613 80.5167C133.613 83.1641 135.772 85.3102 138.435 85.3102Z" fill="#BAE3E8"/>
<path d="M360.786 123.059H356.868C356.466 123.059 356.165 122.76 356.165 122.36V109.877C356.165 109.478 356.466 109.178 356.868 109.178H360.786C361.188 109.178 361.49 109.478 361.49 109.877V122.36C361.49 122.76 361.188 123.059 360.786 123.059Z" fill="#BAE3E8"/>
<path d="M365.107 118.765H352.548C352.146 118.765 351.844 118.465 351.844 118.066V114.171C351.844 113.772 352.146 113.472 352.548 113.472H365.107C365.509 113.472 365.81 113.772 365.81 114.171V118.066C365.81 118.365 365.509 118.765 365.107 118.765Z" fill="#BAE3E8"/>
<path d="M96.1355 144.73H92.217C91.8151 144.73 91.5137 144.43 91.5137 144.031V131.548C91.5137 131.148 91.8151 130.849 92.217 130.849H96.1355C96.5374 130.849 96.8388 131.148 96.8388 131.548V144.031C96.8388 144.43 96.5374 144.73 96.1355 144.73Z" fill="#BAE3E8"/>
<path d="M100.456 140.436H87.8966C87.4947 140.436 87.1932 140.136 87.1932 139.737V135.842C87.1932 135.442 87.4947 135.143 87.8966 135.143H100.456C100.858 135.143 101.159 135.442 101.159 135.842V139.737C101.159 140.136 100.858 140.436 100.456 140.436Z" fill="#BAE3E8"/>
<path d="M366.112 169.896C368.423 196.759 312.157 223.423 240.518 229.415C168.879 235.407 106.685 191.566 106.685 191.566C106.685 191.566 160.64 138.039 232.279 132.047C303.918 126.055 363.801 142.932 366.112 169.896Z" fill="#BAE3E8"/>
<path d="M106.685 191.566C106.685 191.566 53.1323 227.218 64.285 243.396C75.4378 259.574 129.292 204.749 129.292 204.749L106.685 191.566Z" fill="#8DD1D3"/>
<path d="M123.364 177.386C123.364 177.386 30.425 161.907 28.2145 177.086C26.0041 192.265 106.685 191.467 106.685 191.467L123.364 177.386Z" fill="#8DD1D3"/>
<path d="M248.657 155.815C243.633 154.517 234.992 157.013 231.978 158.611C227.054 161.208 215.701 171.094 218.112 183.977C220.524 196.959 234.289 205.248 248.757 202.651C252.173 202.052 255.288 200.854 258.001 199.256C258.001 199.256 259.508 158.511 248.657 155.815Z" fill="#8DD1D3"/>
<path d="M366.112 169.896C364.404 149.523 329.539 134.843 281.612 131.548C296.985 157.013 303.918 187.672 299.296 219.129C340.39 207.545 367.619 188.77 366.112 169.896Z" fill="#8DD1D3"/>
<path d="M325.419 162.905C328.527 162.905 331.046 160.402 331.046 157.313C331.046 154.224 328.527 151.72 325.419 151.72C322.312 151.72 319.793 154.224 319.793 157.313C319.793 160.402 322.312 162.905 325.419 162.905Z" fill="#404041"/>
<path d="M256.293 170.395L234.791 174.689C233.183 174.989 232.078 176.587 232.38 178.185L256.695 173.391C256.695 172.392 256.494 171.394 256.293 170.395Z" fill="#65AAAA"/>
<path d="M257.8 183.777C257.699 182.778 257.699 181.78 257.599 180.781L240.619 184.376C239.011 184.676 237.906 186.274 238.308 187.971L257.8 183.777Z" fill="#65AAAA"/>
<path d="M112.312 194.762L83.3752 220.927C84.4805 222.125 86.3895 222.225 87.5952 221.126L114.924 196.36L112.312 194.762Z" fill="#65AAAA"/>
<path d="M107.188 215.634L122.862 200.854L122.359 200.554L120.149 199.256L102.867 215.434C103.973 216.732 105.882 216.732 107.188 215.634Z" fill="#65AAAA"/>
<path d="M119.245 180.881L119.345 180.082L81.5666 175.888C79.959 175.688 78.4519 176.886 78.251 178.484L116.934 182.778L119.245 180.881Z" fill="#65AAAA"/>
<path d="M94.2266 186.373L110.805 188.071L114.02 185.375L97.4418 183.677C95.8342 183.477 94.327 184.676 94.2266 186.373Z" fill="#65AAAA"/>
<path d="M136.627 61.3428C136.627 61.3428 135.522 52.8543 135.924 50.2578L217.409 76.0229L223.538 56.8489L143.459 32.4819C145.067 29.9853 146.072 26.9893 145.971 23.3942C145.469 5.81798 127.484 3.72083 127.484 3.72083C127.484 3.72083 121.656 6.9165 117.738 16.7032C115.628 21.8962 117.939 30.2849 121.254 34.3793C116.231 35.8773 110.704 39.4724 109.398 44.965C107.791 51.7558 112.011 60.6438 120.752 64.3388C129.292 68.0338 136.627 61.3428 136.627 61.3428Z" fill="#F4E7D0"/>
<path d="M271.766 23.5938C245.14 16.9028 210.175 22.695 189.778 33.4804C180.535 38.3738 167.272 44.7651 167.272 44.7651C167.272 44.7651 173.501 50.2577 174.707 52.6545C175.611 54.452 165.865 59.645 165.865 59.645C165.865 59.645 176.616 70.5302 178.425 74.5248C189.376 99.0916 215.098 130.549 242.829 137.54C281.512 147.226 319.391 129.55 327.328 98.0929C335.366 66.6355 310.449 33.2807 271.766 23.5938Z" fill="#FBCCB4"/>
</svg>
