<svg width="450" height="350" viewBox="0 0 450 350" xmlns="http://www.w3.org/2000/svg">
<path d="M441.692 175.163C441.692 288.526 329.433 330.561 216.07 330.561C159.991 330.561 57.2622 330.561 57.2622 330.561C57.2622 330.561 21.3473 294.646 10.613 233.55C-4.83646 145.769 92.9765 2.00934 206.339 2.00934C319.702 2.00934 441.692 61.901 441.692 175.163Z" fill="#404041"/>
<path d="M250.781 184.694C250.781 184.894 246.869 209.373 238.241 223.317C237.539 224.521 236.737 225.725 236.034 226.929C232.523 232.547 228.51 239.068 224.999 246.391C225.701 217.8 228.009 194.224 231.219 185.396C236.335 171.251 240.348 139.248 240.549 137.944L231.219 136.74C231.219 137.041 227.106 169.044 222.391 182.186C221.387 184.995 220.485 188.807 219.682 193.422C219.582 192.82 219.481 192.318 219.381 191.817C212.96 157.507 214.365 84.7741 214.365 83.9716L205.035 83.7709C204.935 86.7806 203.53 158.309 210.252 193.522C210.954 197.234 211.556 201.849 212.058 207.166C201.524 191.716 187.68 184.293 186.777 183.891L182.463 192.218C183.767 192.92 213.161 208.671 214.465 243.582C214.967 255.721 215.368 268.562 215.569 280.902C215.368 283.309 215.669 288.426 215.669 288.426C216.07 308.791 216.171 320.027 216.171 330.561C216.171 339.188 218.779 347.013 225.501 347.013C225.501 344.605 225.601 314.61 224.899 280.801C226.403 260.035 236.034 244.485 243.96 231.744C244.762 230.541 245.464 229.236 246.267 228.133C255.798 212.583 259.911 187.102 260.011 185.998L250.781 184.694Z" fill="#C08FC0"/>
<path d="M363.141 2.00934C363.141 2.00934 453.53 -1.00029 432.663 101.026C411.797 203.053 354.413 280.099 354.413 280.099C354.413 280.099 344.281 273.578 345.886 259.433C346.889 249.802 351.805 242.178 356.62 236.459L302.647 268.261C302.647 268.261 293.117 248.097 310.773 235.055L288.301 242.679C288.301 242.679 276.464 226.327 301.845 209.172C327.226 192.017 349.598 164.931 353.109 146.371C356.62 127.912 362.84 94.405 362.84 94.405C362.84 94.405 341.973 90.0911 327.728 120.99C313.482 151.889 297.431 154.297 292.114 150.986C286.797 147.575 293.618 123.097 307.463 99.3207C321.207 75.6449 363.141 2.00934 363.141 2.00934Z" fill="#FBCCB4"/>
<path d="M53.9516 28.3937C53.9516 28.3937 -17.8782 69.5253 23.454 165.031C64.7863 260.536 132.202 291.034 132.202 291.034C132.202 291.034 142.836 276.187 128.39 264.75L160.192 279.196C160.192 279.196 172.531 255.219 137.519 240.874L174.939 246.09C174.939 246.09 180.256 228.333 151.865 220.508C122.371 212.382 100.802 184.995 93.4781 167.639C86.255 150.284 80.637 117.579 80.637 117.579C80.637 117.579 99.397 104.838 119.662 132.025C139.927 159.212 157.483 154.999 161.997 150.685C166.512 146.271 149.558 122.194 131.098 101.829C112.639 81.4635 53.9516 28.3937 53.9516 28.3937Z" fill="#FBCCB4"/>
<path d="M214.365 96.8127C229.546 96.8127 241.853 84.5059 241.853 69.3247C241.853 54.1436 229.546 41.8368 214.365 41.8368C199.184 41.8368 186.877 54.1436 186.877 69.3247C186.877 84.5059 199.184 96.8127 214.365 96.8127Z" fill="#DFC4DF"/>
<path d="M181.359 198.638C192.108 198.638 200.822 189.925 200.822 179.176C200.822 168.427 192.108 159.714 181.359 159.714C170.611 159.714 161.897 168.427 161.897 179.176C161.897 189.925 170.611 198.638 181.359 198.638Z" fill="#DFC4DF"/>
<path d="M237.639 145.769C246.061 145.769 252.888 138.942 252.888 130.521C252.888 122.099 246.061 115.272 237.639 115.272C229.218 115.272 222.391 122.099 222.391 130.521C222.391 138.942 229.218 145.769 237.639 145.769Z" fill="#DFC4DF"/>
<path d="M254.995 198.638C263.417 198.638 270.244 191.811 270.244 183.39C270.244 174.968 263.417 168.141 254.995 168.141C246.573 168.141 239.746 174.968 239.746 183.39C239.746 191.811 246.573 198.638 254.995 198.638Z" fill="#DFC4DF"/>
<path d="M175.842 117.679C171.127 101.026 166.713 79.3568 133.807 54.0759L134.911 52.5711C136.115 51.0663 138.322 50.7653 139.726 51.9691C178.35 83.9715 181.66 118.582 182.363 121.391C179.453 122.194 176.644 120.488 175.842 117.679Z" fill="#DFC4DF"/>
<path d="M239.846 285.215C240.348 282.808 248.875 241.776 272.551 214.991C274.557 212.784 277.968 212.382 280.175 214.489C257.001 241.375 252.186 269.164 245.966 282.406C245.063 284.413 243.358 285.918 241.251 285.416L239.846 285.215Z" fill="#DFC4DF"/>
<path d="M275.36 66.0141C278.02 66.0141 280.175 63.8582 280.175 61.1987C280.175 58.5392 278.02 56.3833 275.36 56.3833C272.701 56.3833 270.545 58.5392 270.545 61.1987C270.545 63.8582 272.701 66.0141 275.36 66.0141Z" fill="#DFC4DF"/>
<path d="M190.79 283.008C195.998 283.008 200.22 278.786 200.22 273.578C200.22 268.37 195.998 264.148 190.79 264.148C185.581 264.148 181.359 268.37 181.359 273.578C181.359 278.786 185.581 283.008 190.79 283.008Z" fill="#DFC4DF"/>
<path d="M304.252 181.985C309.461 181.985 313.683 177.763 313.683 172.555C313.683 167.347 309.461 163.125 304.252 163.125C299.044 163.125 294.822 167.347 294.822 172.555C294.822 177.763 299.044 181.985 304.252 181.985Z" fill="#DFC4DF"/>
<path d="M146.749 104.337C149.408 104.337 151.564 102.181 151.564 99.5213C151.564 96.8618 149.408 94.7059 146.749 94.7059C144.089 94.7059 141.933 96.8618 141.933 99.5213C141.933 102.181 144.089 104.337 146.749 104.337Z" fill="#DFC4DF"/>
<path d="M274.658 264.148H270.745C270.344 264.148 270.043 263.847 270.043 263.446V250.805C270.043 250.404 270.344 250.103 270.745 250.103H274.658C275.059 250.103 275.36 250.404 275.36 250.805V263.345C275.36 263.847 275.059 264.148 274.658 264.148Z" fill="#DFC4DF"/>
<path d="M279.072 259.834H266.532C266.131 259.834 265.83 259.533 265.83 259.132V255.219C265.83 254.818 266.131 254.517 266.532 254.517H279.072C279.473 254.517 279.774 254.818 279.774 255.219V259.132C279.774 259.433 279.373 259.834 279.072 259.834Z" fill="#DFC4DF"/>
<path d="M163.904 48.8592H159.991C159.59 48.8592 159.289 48.5582 159.289 48.157V35.5165C159.289 35.1152 159.59 34.8143 159.991 34.8143H163.904C164.305 34.8143 164.606 35.1152 164.606 35.5165V48.157C164.606 48.5582 164.305 48.8592 163.904 48.8592Z" fill="#DFC4DF"/>
<path d="M168.217 44.5454H155.677C155.276 44.5454 154.975 44.2444 154.975 43.8432V39.9306C154.975 39.5294 155.276 39.2284 155.677 39.2284H168.217C168.619 39.2284 168.92 39.5294 168.92 39.9306V43.8432C168.92 44.1441 168.619 44.5454 168.217 44.5454Z" fill="#DFC4DF"/>
<path d="M277.366 111.359H273.454C273.053 111.359 272.752 111.058 272.752 110.657V98.0165C272.752 97.6152 273.053 97.3143 273.454 97.3143H277.366C277.768 97.3143 278.069 97.6152 278.069 98.0165V110.557C278.069 111.058 277.768 111.359 277.366 111.359Z" fill="#DFC4DF"/>
<path d="M281.68 107.045H269.14C268.739 107.045 268.438 106.744 268.438 106.343V102.33C268.438 101.929 268.739 101.628 269.14 101.628H281.68C282.082 101.628 282.383 101.929 282.383 102.33V106.243C282.383 106.644 282.082 107.045 281.68 107.045Z" fill="#DFC4DF"/>
<path d="M132.202 179.577H128.29C127.888 179.577 127.587 179.276 127.587 178.875V166.335C127.587 165.934 127.888 165.633 128.29 165.633H132.202C132.603 165.633 132.904 165.934 132.904 166.335V178.875C132.904 179.176 132.603 179.577 132.202 179.577Z" fill="#DFC4DF"/>
<path d="M136.616 175.163H124.076C123.675 175.163 123.374 174.862 123.374 174.461V170.549C123.374 170.147 123.675 169.846 124.076 169.846H136.616C137.017 169.846 137.318 170.147 137.318 170.549V174.461C137.318 174.862 136.917 175.163 136.616 175.163Z" fill="#DFC4DF"/>
</svg>
